<svg width="64" height="64" viewBox="0 0 64 64" fill="none" xmlns="http://www.w3.org/2000/svg">
<rect width="64" height="64" fill="white"/>
<path d="M16.8731 54.3586V56.9404H16.5221V54.3586H16.0312V54.0629H16.5221V53.8009C16.5221 53.6783 16.5311 53.5648 16.5498 53.461C16.5684 53.3568 16.6037 53.2674 16.6556 53.1931C16.7077 53.1186 16.7793 53.0609 16.8704 53.0202C16.9615 52.9794 17.0777 52.959 17.219 52.959C17.2711 52.959 17.3191 52.9609 17.3639 52.9646C17.4085 52.9684 17.4589 52.9738 17.5145 52.9814V53.2826C17.4662 53.2749 17.4214 53.2687 17.3805 53.263C17.3396 53.2576 17.2989 53.2549 17.258 53.2549C17.1613 53.2549 17.087 53.2697 17.0349 53.2992C16.9827 53.3292 16.9447 53.3687 16.9204 53.4189C16.8961 53.4693 16.8822 53.5276 16.8787 53.5947C16.8751 53.6617 16.8731 53.7341 16.8731 53.812V54.0631H17.4421V54.3588H16.8731V54.3586Z" fill="#231F20"/>
<path d="M20.6206 56.9401V56.4215H20.6096C20.5166 56.6147 20.3819 56.7626 20.2053 56.8649C20.0287 56.9668 19.8326 57.0181 19.617 57.0181C19.4346 57.0181 19.2796 56.993 19.1513 56.9426C19.0229 56.8927 18.9189 56.8211 18.839 56.728C18.7589 56.6354 18.7004 56.5219 18.6632 56.388C18.626 56.254 18.6074 56.1019 18.6074 55.9307V54.0625H18.9587V55.9361C18.9662 56.1967 19.0264 56.3932 19.1399 56.5273C19.2532 56.6612 19.4493 56.728 19.7282 56.728C19.8805 56.728 20.0105 56.6956 20.1184 56.6306C20.2261 56.5655 20.3155 56.4791 20.3859 56.3712C20.4566 56.2635 20.5087 56.14 20.5421 56.0002C20.5754 55.8609 20.5922 55.7186 20.5922 55.5737V54.0625H20.9435V56.9399H20.6206V56.9401Z" fill="#231F20"/>
<path d="M22.7903 54.0633V54.5595H22.8017C22.8685 54.3848 22.9874 54.2443 23.1586 54.1385C23.3296 54.0326 23.5174 53.9795 23.7219 53.9795C23.9227 53.9795 24.0908 54.0055 24.2266 54.0577C24.3621 54.1098 24.4708 54.1829 24.5526 54.2779C24.6343 54.3726 24.692 54.489 24.7255 54.6264C24.7591 54.764 24.7757 54.9184 24.7757 55.0892V56.9407H24.4245V55.145C24.4245 55.0223 24.4133 54.9078 24.3909 54.8023C24.3687 54.6961 24.3297 54.604 24.2741 54.5261C24.2181 54.4479 24.1431 54.3865 24.0483 54.342C23.9533 54.2976 23.8354 54.2752 23.6941 54.2752C23.5529 54.2752 23.4274 54.3003 23.3178 54.3504C23.208 54.4006 23.1151 54.4695 23.0389 54.5566C22.9627 54.6442 22.9032 54.7482 22.8604 54.869C22.8177 54.9898 22.7944 55.1211 22.7907 55.262V56.9405H22.4395V54.0631H22.7903V54.0633Z" fill="#231F20"/>
<path d="M26.6204 54.0633V54.5595H26.6318C26.6986 54.3848 26.8175 54.2443 26.9887 54.1385C27.1597 54.0326 27.3474 53.9795 27.552 53.9795C27.7527 53.9795 27.9208 54.0055 28.0567 54.0577C28.1922 54.1098 28.3009 54.1829 28.3829 54.2779C28.4645 54.3726 28.5222 54.489 28.5556 54.6264C28.5892 54.764 28.6058 54.9184 28.6058 55.0892V56.9407H28.2545V55.145C28.2545 55.0223 28.2433 54.9078 28.221 54.8023C28.1988 54.6961 28.1598 54.604 28.1042 54.5261C28.0482 54.4479 27.9731 54.3865 27.8782 54.342C27.7832 54.2976 27.6653 54.2752 27.524 54.2752C27.3828 54.2752 27.2573 54.3003 27.1477 54.3504C27.0379 54.4006 26.945 54.4695 26.869 54.5566C26.7928 54.6442 26.7331 54.7482 26.6905 54.869C26.6478 54.9898 26.6245 55.1211 26.6208 55.262V56.9405H26.2695V54.0631H26.6204V54.0633Z" fill="#231F20"/>
<path d="M30.1549 54.0627L31.1031 56.5163L31.9896 54.0627H32.3408L31.0917 57.3752C31.0396 57.4979 30.9916 57.599 30.9468 57.6789C30.9022 57.7588 30.853 57.8219 30.7991 57.8685C30.7451 57.9152 30.682 57.9486 30.6096 57.969C30.537 57.9893 30.445 57.9995 30.3334 57.9995C30.2628 57.9956 30.208 57.9931 30.169 57.9912C30.1298 57.9893 30.0955 57.9827 30.0657 57.9715V57.6762C30.1066 57.6834 30.1466 57.6901 30.1858 57.6955C30.2248 57.7011 30.2647 57.7042 30.3056 57.7042C30.3836 57.7042 30.4479 57.6928 30.4981 57.6704C30.5482 57.6482 30.5919 57.6176 30.6291 57.5786C30.6662 57.5394 30.6976 57.4921 30.7239 57.4363C30.7497 57.3806 30.7777 57.3194 30.8074 57.2524L30.9302 56.9289L29.7812 54.0625H30.1549V54.0627Z" fill="#231F20"/>
<path d="M36.2671 52.959V56.9406H35.916V52.959H36.2671Z" fill="#231F20"/>
<path d="M37.8514 54.5093C37.911 54.3867 37.9917 54.2867 38.0942 54.2082C38.1963 54.1302 38.3161 54.0727 38.4537 54.0353C38.5911 53.9982 38.7438 53.9795 38.9109 53.9795C39.0374 53.9795 39.1638 53.9917 39.2902 54.016C39.4164 54.0401 39.5299 54.0854 39.6304 54.1526C39.731 54.2196 39.8124 54.3132 39.8759 54.434C39.9389 54.5548 39.9705 54.7119 39.9705 54.9051V56.4331C39.9705 56.5746 40.039 56.6452 40.1768 56.6452C40.2175 56.6452 40.2548 56.6379 40.288 56.6228V56.9183C40.2471 56.926 40.2112 56.9312 40.1793 56.9351C40.1481 56.939 40.1079 56.9407 40.0597 56.9407C39.9705 56.9407 39.8987 56.9285 39.8449 56.9042C39.7912 56.8803 39.7493 56.8457 39.7196 56.8012C39.6899 56.7568 39.6704 56.7035 39.6611 56.6423C39.6517 56.5811 39.6472 56.5132 39.6472 56.4387H39.636C39.5727 56.5319 39.5087 56.6145 39.4436 56.6869C39.3784 56.7593 39.306 56.8197 39.2261 56.8681C39.1462 56.9164 39.0551 56.9534 38.953 56.9795C38.8507 57.0053 38.7289 57.0185 38.5877 57.0185C38.4539 57.0185 38.3283 57.0026 38.2115 56.971C38.0944 56.9397 37.9919 56.8894 37.9046 56.8206C37.8174 56.7519 37.7485 56.6645 37.6983 56.5586C37.6481 56.4526 37.623 56.3273 37.623 56.1822C37.623 55.9817 37.6678 55.8246 37.7568 55.7111C37.8462 55.5978 37.9641 55.5113 38.1108 55.4517C38.2578 55.3921 38.423 55.3506 38.6072 55.3264C38.7911 55.3021 38.9779 55.2792 39.1674 55.2568C39.2419 55.2494 39.3068 55.24 39.3628 55.2288C39.4183 55.2176 39.4648 55.1981 39.5021 55.1703C39.5391 55.1423 39.5683 55.1041 39.5888 55.0557C39.6088 55.0076 39.6192 54.9443 39.6192 54.8663C39.6192 54.7472 39.5996 54.6496 39.5604 54.5734C39.5216 54.4973 39.4674 54.4367 39.399 54.3923C39.3301 54.3479 39.2502 54.3171 39.1591 54.3003C39.0678 54.2835 38.9704 54.2752 38.8662 54.2752C38.6432 54.2752 38.4609 54.3281 38.32 54.4338C38.1785 54.54 38.1044 54.71 38.0969 54.9443H37.7456C37.7566 54.7772 37.7919 54.6322 37.8514 54.5093ZM39.6079 55.3681C39.5857 55.4092 39.543 55.439 39.4799 55.4577C39.4164 55.4762 39.3606 55.4889 39.3124 55.4965C39.1636 55.5223 39.0103 55.5459 38.8523 55.5661C38.6944 55.5864 38.5504 55.6171 38.4203 55.6582C38.2901 55.6991 38.1833 55.7578 38.0998 55.8338C38.0158 55.9103 37.9745 56.0189 37.9745 56.1598C37.9745 56.2492 37.9919 56.3281 38.0272 56.3968C38.0625 56.4657 38.11 56.525 38.1692 56.5753C38.2289 56.6255 38.2976 56.6637 38.3754 56.6898C38.4535 56.7157 38.5332 56.7286 38.6153 56.7286C38.7492 56.7286 38.8774 56.7083 39.0001 56.6674C39.1229 56.6267 39.2296 56.567 39.3207 56.4889C39.4118 56.4109 39.4843 56.3161 39.5382 56.2044C39.592 56.093 39.6191 55.9666 39.6191 55.8252V55.3679H39.6079V55.3681Z" fill="#231F20"/>
<path d="M43.661 56.6454V56.9409H41.2578V56.6564L43.1369 54.3591H41.386V54.0635H43.5831V54.3146L41.6814 56.6454H43.661Z" fill="#231F20"/>
<path d="M44.9774 54.0627L45.9252 56.5163L46.8118 54.0627H47.1633L45.914 57.3752C45.8617 57.4979 45.8136 57.599 45.769 57.6789C45.7245 57.7588 45.6751 57.8219 45.6212 57.8685C45.5672 57.9152 45.5041 57.9486 45.4317 57.969C45.3593 57.9893 45.2671 57.9995 45.1555 57.9995C45.0849 57.9956 45.03 57.9931 44.9911 57.9912C44.9519 57.9893 44.9175 57.9827 44.8876 57.9715V57.6762C44.9287 57.6834 44.9687 57.6901 45.0077 57.6955C45.0466 57.7011 45.0866 57.7042 45.1275 57.7042C45.2055 57.7042 45.2696 57.6928 45.3199 57.6704C45.3701 57.6482 45.4135 57.6176 45.451 57.5786C45.488 57.5394 45.5199 57.4921 45.5457 57.4363C45.5718 57.3806 45.5996 57.3194 45.6295 57.2524L45.7523 56.9289L44.6035 54.0625H44.9774V54.0627Z" fill="#231F20"/>
<path d="M46.7134 23.7932C47.5655 23.2007 47.7477 22.3461 47.3599 21.4602C46.8054 20.1934 45.2118 19.1274 43.3803 19.3563C40.9979 19.654 39.9823 21.2854 39.5502 22.5275C38.652 25.1101 40.4862 28.5157 43.6871 27.1887C45.1478 26.5832 44.5719 25.283 46.7134 23.7932Z" fill="#231F20"/>
<path d="M49.6078 25.7514C48.9489 26.6607 50.9518 28.3928 51.626 27.5427C52.4532 26.4999 52.7639 24.9514 51.4455 24.957C51.4455 24.957 50.147 25.0066 49.6078 25.7514Z" fill="#231F20"/>
<path d="M53.2956 24.2976C52.474 23.0093 51.4471 22.8082 51.1261 22.654C51.0169 18.5678 48.7765 15.0554 45.5233 13.0883C45.8582 11.4826 44.8492 9.25205 42.2174 9.45161C40.6063 9.57398 39.6895 10.4583 39.1098 11.4146C38.8531 11.4233 38.5958 11.4414 38.3389 11.4667C37.7427 9.94975 36.1626 9.38831 34.533 10.5251C31.6542 7.66038 27.7071 6 23.5927 6C18.9642 6 14.5877 7.99639 11.5694 11.6705C10.8632 11.0244 9.77915 10.5181 8.41889 11.41C6.11215 12.9221 6.90133 16.2394 8.76899 16.8574C8.33995 18.2472 8.11182 19.6993 8.09696 21.1798C7.61543 22.0763 7.26204 23.2984 7.18812 24.9792C7.01925 28.8242 8.26989 36.0495 15.4694 36.3149C17.041 36.373 18.4227 36.1576 19.5654 35.6794C21.5496 35.6805 29.1154 35.6846 31.8153 35.6834C32.9307 36.0812 34.1838 36.2997 35.5871 36.2997C40.0614 36.2997 43.1707 36.6362 44.0899 34.2197C45.633 33.9574 47.8123 33.3628 49.8143 32.021C52.6663 31.9151 54.691 31.729 55.6475 30.3566C56.8225 28.6715 56.1341 25.3745 53.2956 24.2976ZM19.3521 34.6931C17.3336 35.7154 15.672 35.706 14.9741 34.7481C14.0277 33.4492 15.1322 31.0028 17.5547 29.6518C19.5384 28.5459 20.9002 28.7947 21.5437 29.4817C22.8559 30.8829 21.8131 33.4465 19.3521 34.6931ZM52.8983 27.0795C52.4652 28.8224 50.9945 30.0218 50.1723 30.605C48.1497 32.04 45.9696 32.9061 44.3045 33.2333C44.4495 31.3303 43.2353 29.005 40.4866 28.5154C38.0741 28.0856 37.0425 28.4137 34.4747 28.0132C32.5385 27.7115 29.8108 25.5677 29.2419 22.0653C28.8533 19.6717 28.9817 18.1694 27.6861 17.9151C25.7157 17.5279 24.5288 21.3499 24.7257 24.1721C25.0414 28.6976 26.6838 32.6747 29.9237 34.7578C27.2262 34.7578 23.2419 34.7566 21.11 34.7562C23.7873 32.5786 23.7794 28.8912 22.2983 26.971C20.9965 25.2834 19.0105 25.461 17.5821 25.9002C17.1236 24.4062 16.7262 22.9688 16.5648 22.2933C15.7299 18.8042 11.7779 17.3498 9.09535 19.8661C9.82335 12.7888 15.8505 6.92409 23.5927 6.92409C27.4499 6.92409 31.1508 8.47523 33.8555 11.1533C32.9963 12.2181 33.0077 13.6119 33.0113 14.513C33.0221 17.216 35.3901 17.4044 36.1215 16.1879C36.9869 14.7481 36.5313 15.1938 38.0218 13.78C38.3895 13.4313 38.5474 12.9171 38.53 12.3769C43.2948 11.9506 47.5413 14.6815 49.3196 18.7253C49.6526 19.8483 48.8194 20.4912 48.9093 21.7673C48.9734 22.6845 49.6342 23.0286 50.6019 23.421C50.7542 23.5049 50.9353 23.5842 51.1541 23.6599C52.4644 24.1129 53.2225 25.7756 52.8983 27.0795Z" fill="#231F20"/>
<path d="M12.8061 52.5566C12.8061 52.8536 12.6996 53.1083 12.4876 53.321C12.2751 53.5331 12.0206 53.6393 11.7234 53.6393H10.6406V45.7099C10.6406 44.224 11.0755 43.2099 11.9463 42.6684C12.8167 42.127 13.7614 41.8564 14.7805 41.8564C15.3108 41.8564 15.8472 41.9574 16.3887 42.1589C16.9301 42.3608 17.3599 42.6526 17.6784 43.0347C18.3153 43.8627 18.6337 44.9244 18.6337 46.219C18.6337 47.5567 18.3153 48.6392 17.6784 49.4672C17.0415 50.2745 16.2239 50.6775 15.2263 50.6775C14.6954 50.6775 14.2281 50.5822 13.8251 50.3909C13.4001 50.179 13.0608 49.8495 12.8061 49.4039V52.5566ZM16.4364 46.3151C16.4364 45.4872 16.2772 44.8503 15.9587 44.4042C15.6403 43.9586 15.1835 43.7357 14.5894 43.7357C14.0162 43.7357 13.5704 43.9586 13.2519 44.4042C12.9543 44.808 12.8061 45.4449 12.8061 46.3151C12.8061 47.1223 12.9653 47.7271 13.2838 48.1301C13.6022 48.5759 14.0587 48.799 14.6531 48.799C15.2049 48.799 15.6403 48.5759 15.9589 48.1301C16.2772 47.6841 16.4364 47.0792 16.4364 46.3151Z" fill="#231F20"/>
<path d="M25.1207 50.169C24.6749 50.4029 24.2022 50.5457 23.7035 50.599C23.2044 50.6517 22.7642 50.6785 22.3819 50.6785C21.6176 50.6785 20.9488 50.4716 20.3756 50.0576C19.8022 49.6434 19.5156 48.9589 19.5156 48.0033C19.5156 47.1117 19.7754 46.4748 20.2959 46.0928C20.8159 45.7109 21.4792 45.4559 22.2863 45.3285C22.3923 45.3285 22.5197 45.3125 22.6683 45.2805C22.8167 45.249 22.9867 45.2226 23.178 45.2013C24.1119 45.0738 24.5792 44.798 24.5792 44.373C24.5792 44.0545 24.4144 43.8476 24.0855 43.7521C23.756 43.6568 23.4534 43.6089 23.1778 43.6089C22.8802 43.6089 22.615 43.6517 22.3815 43.7363C22.1478 43.8212 21.9781 43.9806 21.872 44.214H19.7383C19.8229 43.556 20.1203 43.0147 20.63 42.5899C21.2032 42.1018 22.0204 41.8574 23.0823 41.8574C24.271 41.8574 25.1626 42.0593 25.7572 42.4625C26.3727 42.8875 26.6808 43.4815 26.6808 44.2458V47.1437C26.6808 47.9933 26.5265 48.6564 26.2189 49.1341C25.9113 49.6118 25.5451 49.9571 25.1207 50.169ZM24.6112 46.2518C24.3138 46.4008 23.8998 46.5384 23.3693 46.6662L22.6368 46.8251C22.2547 46.9318 21.9785 47.0696 21.8088 47.2392C21.66 47.473 21.5859 47.7065 21.5859 47.94C21.5859 48.2583 21.6815 48.5132 21.8725 48.7039C22.0636 48.8743 22.3392 48.9587 22.7005 48.9587C23.2946 48.9587 23.7618 48.7892 24.1017 48.4491C24.441 48.1097 24.6112 47.6426 24.6112 47.0482V46.2518Z" fill="#231F20"/>
<path d="M35.2828 50.5191H34.1684C33.8499 50.5191 33.5896 50.4187 33.3881 50.2166C33.1862 50.0153 33.0855 49.7552 33.0855 49.4365V45.1056C33.0855 44.5961 32.9314 44.2248 32.6238 43.9912C32.3158 43.7577 31.9709 43.6409 31.5887 43.6409C31.2068 43.6409 30.8667 43.7577 30.5697 43.9912C30.2721 44.225 30.1237 44.5963 30.1237 45.1056V50.5193H27.8945V45.5516C27.8945 44.108 28.2711 43.1422 29.0251 42.6535C29.7784 42.1654 30.612 41.9003 31.5251 41.8574C32.459 41.8574 33.3188 42.1018 34.1045 42.5899C34.8896 43.0783 35.2826 44.0655 35.2826 45.5516V50.5191H35.2828Z" fill="#231F20"/>
<path d="M42.136 39.5322H43.2189C43.5158 39.5322 43.7705 39.6436 43.983 39.8663C44.1951 40.0894 44.3013 40.339 44.3013 40.6148V46.8245C44.3013 48.3324 43.8659 49.3515 42.9958 49.8819C42.1248 50.413 41.1807 50.678 40.1614 50.678C39.6091 50.678 39.0675 50.5875 38.5371 50.4074C38.0062 50.2273 37.582 49.9353 37.2635 49.5316C36.6473 48.7466 36.3398 47.6743 36.3398 46.3154C36.3398 44.9775 36.6473 43.906 37.2635 43.0991C37.9002 42.2709 38.7172 41.8569 39.7152 41.8569C40.2458 41.8569 40.713 41.9634 41.1168 42.1754C41.541 42.4299 41.8809 42.7594 42.1356 43.1624V39.5322H42.136ZM38.5055 46.2197C38.5055 47.0693 38.6649 47.7164 38.9834 48.1622C39.3018 48.6081 39.7581 48.8314 40.3527 48.8314C40.9259 48.8314 41.3719 48.6081 41.6904 48.1622C41.9874 47.7162 42.1362 47.0693 42.1362 46.2197C42.1362 45.4556 41.9772 44.8505 41.6585 44.4045C41.3185 43.9803 40.8624 43.7676 40.2892 43.7676C39.7368 43.7676 39.302 43.9907 38.9834 44.4365C38.6651 44.8611 38.5055 45.4554 38.5055 46.2197Z" fill="#231F20"/>
<path d="M50.9936 50.169C50.5477 50.4029 50.0749 50.5457 49.5764 50.599C49.0771 50.6517 48.6371 50.6785 48.2547 50.6785C47.4904 50.6785 46.8217 50.4716 46.2485 50.0576C45.6751 49.6434 45.3887 48.9589 45.3887 48.0033C45.3887 47.1117 45.6483 46.4748 46.1688 46.0928C46.6887 45.7109 47.3521 45.4559 48.1592 45.3285C48.2653 45.3285 48.3923 45.3125 48.5413 45.2805C48.6894 45.249 48.8596 45.2226 49.0508 45.2013C49.9848 45.0738 50.4522 44.798 50.4522 44.373C50.4522 44.0545 50.2874 43.8476 49.9583 43.7521C49.6289 43.6568 49.3263 43.6089 49.0508 43.6089C48.7532 43.6089 48.4881 43.6517 48.2547 43.7363C48.021 43.8212 47.8512 43.9806 47.7452 44.214H45.6114C45.6959 43.556 45.9935 43.0147 46.5031 42.5899C47.0763 42.1018 47.8932 41.8574 48.9553 41.8574C50.144 41.8574 51.0357 42.0593 51.6301 42.4625C52.2458 42.8875 52.5536 43.4815 52.5536 44.2458V47.1437C52.5536 47.9933 52.3992 48.6564 52.0917 49.1341C51.7841 49.6118 51.418 49.9571 50.9936 50.169ZM50.4843 46.2518C50.1865 46.4008 49.7725 46.5384 49.2421 46.6662L48.5097 46.8251C48.1277 46.9318 47.8513 47.0696 47.6817 47.2392C47.5327 47.473 47.4588 47.7065 47.4588 47.94C47.4588 48.2583 47.5543 48.5132 47.7454 48.7039C47.9363 48.8743 48.2121 48.9587 48.5734 48.9587C49.1674 48.9587 49.6345 48.7892 49.9745 48.4491C50.3138 48.1097 50.4843 47.6426 50.4843 47.0482V46.2518Z" fill="#231F20"/>
</svg>
