<?xml version="1.0" encoding="utf-8"?>
<!-- Generator: Adobe Illustrator 27.5.0, SVG Export Plug-In . SVG Version: 6.00 Build 0)  -->
<svg version="1.1" id="_x3C_Layer_x3E_" xmlns="http://www.w3.org/2000/svg" xmlns:xlink="http://www.w3.org/1999/xlink" x="0px"
	 y="0px" viewBox="0 0 3000 2000" style="enable-background:new 0 0 3000 2000;" xml:space="preserve">
<rect style="fill:#FFFFFF;" width="3000" height="2000"/>
<g>
	<path style="fill:#9EC8F5;" d="M2677.393,431.501v1132.752c0,181.646-139.024,304.156-306.994,328.883
		c-111.133,16.375-218.477,18.327-331.349,15.281c-140.936-3.826-328.896-17.62-479.288-28.638
		c-232.302-16.987-698.486,11.181-930.162,13.357c-169.001,1.632-306.993-146.704-306.993-328.883V431.501
		c0-181.646,137.738-339.574,306.993-328.884c157.184,9.925,388.37,49.2,629.374,25.142
		c286.634-28.606,830.689-52.908,1111.424-25.142C2539.229,119.3,2677.393,249.855,2677.393,431.501z"/>
	<path style="opacity:0.3;fill:#EBF3FC;" d="M1500,1767.023c0,0-771.585,33.005-1078.568,39.593
		c-7.842-7.778-15.302-15.992-22.347-24.6c-47.606-58.147-76.477-134.508-76.477-217.764V999.997c0,0,93.235-34.706,129.364,29.36
		c0,0,143.423-70.229,265.657,42.824c122.234,113.053,61.632,265.731,61.632,265.731s72.429-23.569,135.039,47.691
		c0,0,180.53-31.507,216.149,144.199c0,0,76.148-68.699,134.508-9.192c0,0,177.289-141.67,311.276-25.503
		C1710.22,1611.274,1500,1767.023,1500,1767.023z"/>
	<path style="opacity:0.5;fill:#EBF3FC;" d="M2677.393,1318.594v245.659c0,181.646-139.024,304.156-306.994,328.883
		c-111.133,16.375-218.477,18.327-331.349,15.281c-123.937-3.365-276.056-13.981-404.67-23.229
		c3.22-38.584,12.465-92.47,37.808-137.292c44.62-78.932,261.757-14.048,266.008-12.773c-3.209-1.509-131.277-62.695-38.223-205.321
		c94.245-144.432,265.944-85.648,265.944-85.648c31.889-74.182,121.161-33.813,121.161-33.813
		C2408.08,1272.37,2597.929,1299.392,2677.393,1318.594z"/>
	<g>
		<defs>
			<filter id="Adobe_OpacityMaskFilter" filterUnits="userSpaceOnUse" x="884.704" y="732.718" width="876.307" height="1072.915">
				<feFlood  style="flood-color:white;flood-opacity:1" result="back"/>
				<feBlend  in="SourceGraphic" in2="back" mode="normal"/>
			</filter>
		</defs>
		<mask maskUnits="userSpaceOnUse" x="884.704" y="732.718" width="876.307" height="1072.915" id="SVGID_1_">
			<g style="filter:url(#Adobe_OpacityMaskFilter);">
				<defs>
					
						<filter id="Adobe_OpacityMaskFilter_00000169539425368272527360000003619104001472569245_" filterUnits="userSpaceOnUse" x="884.704" y="732.718" width="876.307" height="1072.915">
						<feFlood  style="flood-color:white;flood-opacity:1" result="back"/>
						<feBlend  in="SourceGraphic" in2="back" mode="normal"/>
					</filter>
				</defs>
				<mask maskUnits="userSpaceOnUse" x="884.704" y="732.718" width="876.307" height="1072.915" id="SVGID_1_">
					<g style="filter:url(#Adobe_OpacityMaskFilter_00000169539425368272527360000003619104001472569245_);">
					</g>
				</mask>
				
					<linearGradient id="SVGID_00000008134622847549299070000009138079964434366861_" gradientUnits="userSpaceOnUse" x1="1322.858" y1="732.7175" x2="1322.858" y2="1805.6324">
					<stop  offset="0" style="stop-color:#FFFFFF"/>
					<stop  offset="1" style="stop-color:#000000"/>
				</linearGradient>
				<path style="mask:url(#SVGID_1_);fill:url(#SVGID_00000008134622847549299070000009138079964434366861_);" d="M1761.012,801.385
					l-1.637,7.959v0.011l-3.985,19.35v0.011l-2.242,10.871l-1.668,8.087v0.01l-1.732,8.384c0,0,0.01,0,0,0.011l-67.052,325.738
					v0.011l-126.527,614.624c-23.059-1.233-47.935-2.125-74.278-2.688h-0.011c-18.15-0.393-37.001-0.648-56.415-0.776
					c-0.01,0-0.01,0-0.01,0c-103.298-0.68-222.823,2.21-340.573,5.908c-6.227,0.181-12.443,0.383-18.66,0.585
					c-22.74,0.733-45.364,1.488-67.764,2.253c-38.85,1.318-76.998,2.657-113.754,3.9l144.209-186.874l248.453-321.955
					l158.098-204.875l153.486-198.903l47.521-61.569l25.971-33.664l8.055-10.435l11.03-14.292l31.135-40.348l7.608,10.807
					l14.845,21.083l12.327,17.512L1761.012,801.385z"/>
			</g>
		</mask>
		
			<linearGradient id="SVGID_00000051381910524136005240000012481905202414255780_" gradientUnits="userSpaceOnUse" x1="1322.858" y1="732.7175" x2="1322.858" y2="1805.6324">
			<stop  offset="0" style="stop-color:#FFFFFF"/>
			<stop  offset="1" style="stop-color:#FFFFFF"/>
		</linearGradient>
		<path style="fill:url(#SVGID_00000051381910524136005240000012481905202414255780_);" d="M1761.012,801.385l-1.637,7.959v0.011
			l-3.985,19.35v0.011l-2.242,10.871l-1.668,8.087v0.01l-1.732,8.384c0,0,0.01,0,0,0.011l-67.052,325.738v0.011l-126.527,614.624
			c-23.059-1.233-47.935-2.125-74.278-2.688h-0.011c-18.15-0.393-37.001-0.648-56.415-0.776c-0.01,0-0.01,0-0.01,0
			c-103.298-0.68-222.823,2.21-340.573,5.908c-6.227,0.181-12.443,0.383-18.66,0.585c-22.74,0.733-45.364,1.488-67.764,2.253
			c-38.85,1.318-76.998,2.657-113.754,3.9l144.209-186.874l248.453-321.955l158.098-204.875l153.486-198.903l47.521-61.569
			l25.971-33.664l8.055-10.435l11.03-14.292l31.135-40.348l7.608,10.807l14.845,21.083l12.327,17.512L1761.012,801.385z"/>
		<g>
			<g>
				<path style="fill:#331832;" d="M1717.706,881.339l-64.578-30.138c-3.646-1.702-5.237-6.078-3.536-9.724l110.274-236.286
					c1.702-3.646,6.078-5.237,9.724-3.536l64.578,30.138c3.646,1.702,5.238,6.078,3.536,9.724L1727.43,877.803
					C1725.729,881.45,1721.353,883.041,1717.706,881.339z"/>
				<path style="fill:#6DA49A;" d="M1696.016,843.562L1696.016,843.562c-29.5-13.768-42.372-49.168-28.604-78.668l110.439-236.64
					c13.767-29.5,49.168-42.372,78.667-28.604h0c29.5,13.767,42.372,49.168,28.604,78.668l-110.439,236.64
					C1760.916,844.457,1725.515,857.329,1696.016,843.562z"/>
				<path style="fill:#331832;" d="M1818.327,890.245l-64.578-30.138c-3.646-1.702-5.238-6.077-3.536-9.724l110.274-236.286
					c1.702-3.646,6.077-5.237,9.724-3.536l64.578,30.138c3.646,1.702,5.238,6.078,3.536,9.724L1828.051,886.71
					C1826.349,890.356,1821.974,891.947,1818.327,890.245z"/>
				<path style="fill:#6DA49A;" d="M1796.636,852.468L1796.636,852.468c-29.5-13.768-42.372-49.168-28.604-78.668l110.439-236.64
					c13.767-29.5,49.168-42.372,78.668-28.604h0c29.5,13.768,42.371,49.168,28.604,78.667l-110.439,236.64
					C1861.536,853.363,1826.136,866.235,1796.636,852.468z"/>
				<path style="fill:#6DA49A;" d="M1841.785,814.394l-119.744-55.884c-9.671-4.513-13.891-16.119-9.377-25.79l95.758-205.183
					c4.513-9.671,16.119-13.891,25.79-9.377l119.744,55.884c9.671,4.513,13.891,16.119,9.378,25.79l-95.758,205.183
					C1863.061,814.688,1851.456,818.908,1841.785,814.394z"/>
			</g>
			<g>
				<path style="fill:#331832;" d="M1936.539,393.098c0,0-49.094,7.958-59.651,49.172c-10.557,41.214-37.123,46.463-76.44,40.119
					c-39.317-6.343-73.461,37.096-44.63,77.861c28.83,40.765-39.554,29.691-19.246,77.944
					c20.308,48.252,246.885-65.891,246.885-65.891l19.783-166.172C2003.239,406.132,1990.276,381.877,1936.539,393.098z"/>
				<path style="fill:#331832;" d="M1820.781,1190.489c0,0-19.019,10.124-22.791,33.837c-2.98,18.731,2.19,59.197-20.509,48.336
					c-13.025-6.232-27.761-55.765-33.508-69.062c-5.749-13.3-16.897-23.299-12.336-36.999c5.018-15.072,57.848-34.31,57.848-34.31
					s-2.482,18.045,2.245,28.25C1798.542,1175.247,1820.781,1190.489,1820.781,1190.489z"/>
				<path style="fill:#331832;" d="M1591.946,1301.484c0,0-20.036,20.351-12.219,37.632c7.817,17.281,27.992,53.536,2.846,52.599
					c-14.428-0.538-47.649-40.123-58.212-50.038c-10.564-9.916-24.77-14.656-26.034-29.041
					c-1.391-15.825,43.305-46.134,43.305-46.134s4.692,13.268,13.088,20.752C1566.819,1298.038,1591.946,1301.484,1591.946,1301.484
					z"/>
				<g>
					<path style="fill:#FFB27D;" d="M2330.908,387.174c-17.191,12.107-30.628,17.054-30.628,17.054s-38.548-27.363-38.089-31.72
						c1.059-10.047,7.97-29.113,9.237-39.126c0.55-4.341,3.481-18.752,8.206-18.521c4.106,0.2,7.668,13.06,8.589,19.322
						c20.617-20.45,61.125-40.996,21.466,5.02c0.028,0.021,0.057,0.045,0.086,0.067c4.496-4.276,32.169-31.787,36.325-23.525
						c3.668,7.292-16.095,28.792-23.404,35.905c0.068,0.076,0.135,0.151,0.202,0.227c8.145-6.582,31.934-25.454,33.096-17.618
						c1.458,9.836-21.916,30.689-21.916,30.689s20.149-19.455,23.31-8.206c2.155,7.672-15.552,21.948-23.206,28.304
						C2333.081,385.959,2331.99,386.649,2330.908,387.174z"/>
				</g>
				<path style="fill:#EF8062;" d="M1947.272,832.968l-355.326,468.516c-13.898,19.529-88.028-9.805-59.663-51.29l228.726-448.814
					c3.187-5.292,63.803,28.965,69.928,28.313C1864.128,826.158,1947.272,832.968,1947.272,832.968z"/>
				<path style="fill:#EF8062;" d="M1958.747,834.663c10.266,1.049,21.461-12.082,26.536-3.651
					c24.443,40.61,110.608,206.919,50.273,263.656c-20.976,19.725-225.084,99.899-225.084,99.899
					c-14.574,3.682-29.908-2.692-36.819-15.271h0c-13.18-23.991-10.296-45.966,13.38-61.318
					c29.695-19.255,71.666-33.984,124.968-77.757c7.928-6.511-30.579-99.675-49.571-135.31c-4.741-8.895-4.482-19.404,0.689-28.087
					l17.063-28.648c6.278-10.54,2.077-19.403,14.879-18.095L1958.747,834.663z"/>
				<g>
					<path style="fill:#331832;" d="M1877.056,934.159l-1.193-0.625c13.3-25.674,31.428-33.536,31.612-33.614l0.524,1.249
						C1907.821,901.237,1890.121,908.954,1877.056,934.159z"/>
				</g>
				<g>
					<path style="fill:#FFB27D;" d="M2266.513,358.798c-55.317,52.019-164.586,127.941-255.321,157.665
						c-10.058,3.295-23.452,23.391-16.849,40.11c6.196,15.688,27.109,50.285,32.794,49.393
						c9.669-1.518,151.7-60.569,282.312-206.747c0,0-6.989-1.49-20.012-19.907C2283.999,371.62,2266.513,358.798,2266.513,358.798z"
						/>
				</g>
				<path style="fill:#E7F3F1;" d="M2013.012,512.604c0,0-31.736,7.717-71.97,16.571c-64.466,14.186-129.123,42.448-137.989,110.886
					c-3.951,30.499-14.595,49.195-29.453,82.161c-26.069,57.841-38.784,90.441-39.105,93.014
					c102.11,75.444,275.626,44.377,275.626,44.377c31.793-98.094,41.633-125.709,49.505-161.168
					C2086.272,578.425,2013.012,512.604,2013.012,512.604z"/>
				<path style="fill:#FFB27D;" d="M1993.671,559.242c-13.615,3.927-45.681-2.103-52.63-30.067
					c0.046,0.001,14.118-3.548,19.878-11.665c6.177-8.705,11.582-25.955,11.582-25.955l0.101-5.106l15.607-46.346l2.213,46.188
					l0.555,11.275l0.03,0.566l0.565,11.754l0.017,0.218c0,0-1.933,8.781,13.515,5.247
					C2005.104,515.35,2015.846,552.846,1993.671,559.242z"/>
				<path style="fill:#331832;" d="M1991.572,509.885c-10.859-3.774-19.153-15.441-19.153-15.441l1.549,0.039l17.04,3.648
					L1991.572,509.885z"/>
				<path style="fill:#FFB27D;" d="M1565.975,820.085c13.99-15.351,25.945-22.919,25.945-22.919s43.686,19.049,44.224,23.415
					c1.24,10.07-1.176,30.169-0.146,40.246c0.446,4.369,0.85,19.097-3.799,19.826c-4.04,0.634-10.411-11.261-12.722-17.217
					c-15.438,24.227-50.207,52.569-22.018-0.585c-0.033-0.015-0.066-0.033-0.098-0.048c-3.408,5.103-24.116,37.682-30.026,30.419
					c-5.216-6.411,9.153-31.496,14.657-39.95c-0.083-0.06-0.165-0.121-0.248-0.181c-6.437,8.103-25.318,31.423-28.218,23.971
					c-3.641-9.353,14.388-34.533,14.388-34.533s-15.208,23.157-20.824,12.761c-3.83-7.089,10.172-24.672,16.182-32.454
					C1564.136,821.716,1565.041,820.818,1565.975,820.085z"/>
				<g>
					<path style="fill:#FFB27D;" d="M1632.56,832.341c42.065-62.207,133.297-128.16,223.413-176.854
						c19.22-10.385-8.108-90.39-13.457-88.42c-47.728,17.579-185.385,124.734-252.761,230.894c0,0,1.199,6.303,16.924,23.171
						C1615.574,830.675,1632.56,832.341,1632.56,832.341z"/>
				</g>
				<g>
					<path style="fill:#331832;" d="M1927.403,465.143c0,0,5.188,5.109,9.415,19.572c6.184,21.162,31.627,15.738,33.716,7.296
						c0.258-1.044-19.788-31.096-19.788-31.096l-9.075,0.23L1927.403,465.143z"/>
				</g>
				
					<ellipse transform="matrix(0.8448 -0.535 0.535 0.8448 66.1784 1128.1514)" style="fill:#FFB27D;" cx="1978.186" cy="449.975" rx="40.825" ry="50.002"/>
				<path style="fill:#331832;" d="M1971.523,408.898c-0.147,1.901,2.851,36.763-18.503,50.901
					c-40.339,26.709-43.799-33.78-14.347-53.492c57.747-38.649,79.537,21.352,67.753,15.357
					C1984.168,410.341,1971.523,408.898,1971.523,408.898z"/>
				<path style="fill:#331832;" d="M1953.16,450.059c0,0-5.741,27.776,11.179,41.96c0,0-16.209-4.437-18.87-8.207
					c-2.661-3.77-8.93-19.467-8.93-19.467L1953.16,450.059z"/>
				<path style="fill:#FFB27D;" d="M1952.181,475.078c6.252,1.268,11.978-1.773,12.788-6.792c0.811-5.018-3.601-10.114-9.853-11.381
					c-6.252-1.267-11.978,1.773-12.788,6.792S1945.929,473.81,1952.181,475.078z"/>
				<g>
					<path style="fill:#080435;" d="M1981.792,448.294c0.192-0.206,0.288-0.495,0.235-0.792c-0.089-0.5-0.569-0.833-1.073-0.742
						c-0.297,0.054-7.295,0.657-8.788,8.615c-0.094,0.502,0.218,0.987,0.72,1.088c0.502,0.1,0.886-0.256,1.097-0.723
						c2.107-4.668,7.046-7.117,7.292-7.163C1981.482,448.539,1981.66,448.436,1981.792,448.294z"/>
				</g>
				<path style="fill:#080435;" d="M1980.938,460.766c1.108,1.9,3.134,2.786,4.524,1.979c1.391-0.807,1.62-3.003,0.512-4.903
					c-1.108-1.9-3.134-2.786-4.524-1.979C1980.059,456.67,1979.83,458.866,1980.938,460.766z"/>
				<g>
					<path style="fill:#080435;" d="M2012.47,434.827c0.256-0.118,0.455-0.35,0.52-0.645c0.109-0.498-0.206-0.987-0.705-1.094
						c-0.294-0.063-6.981-2.156-11.406,4.654c-0.279,0.429-0.177,0.997,0.248,1.281c0.424,0.283,0.916,0.099,1.289-0.254
						c3.732-3.527,9.226-3.926,9.47-3.875C2012.091,434.937,2012.294,434.909,2012.47,434.827z"/>
				</g>
				<path style="fill:#080435;" d="M2006.906,446.061c0.295,2.181,1.824,3.77,3.416,3.548c1.592-0.221,2.644-2.169,2.35-4.35
					c-0.294-2.181-1.824-3.77-3.416-3.548C2007.664,441.933,2006.612,443.88,2006.906,446.061z"/>
				<path style="opacity:0.3;fill:#FFFFFF;" d="M1961.188,458.629c3.136,12.026,13.095,21.509,22.243,21.182
					c9.148-0.327,14.022-10.341,10.885-22.366c-3.136-12.026-13.095-21.509-22.243-21.182
					C1962.925,436.59,1958.052,446.604,1961.188,458.629z"/>
				<path style="opacity:0.3;fill:#FFFFFF;" d="M1999.669,443.324c4.389,11.38,14.531,20.134,22.651,19.552
					c8.12-0.582,11.145-10.28,6.756-21.66c-4.389-11.381-14.531-20.134-22.651-19.552
					C1998.305,422.246,1995.28,431.944,1999.669,443.324z"/>
				<g>
					<path style="fill:#68A1BF;" d="M1997.224,461.801c-0.075-2.062-0.393-4.208-0.935-6.397c-0.585-2.274-1.392-4.452-2.412-6.514
						c-0.414-0.882-0.871-1.721-1.37-2.55c-1.244-2.083-2.657-3.985-4.261-5.674l-0.01-0.011v-0.011
						c-0.043-0.053-0.096-0.106-0.149-0.159c-3.932-4.165-8.724-6.95-13.463-7.545h-0.011c-0.84-0.106-1.679-0.138-2.508-0.106
						c-4.049,0.17-7.491,1.987-9.925,5.271c-3.093,4.134-4.198,10.01-3.135,16.428v0.011c0.149,0.935,0.351,1.838,0.584,2.773
						c0.138,0.542,0.297,1.084,0.468,1.615c0,0.01,0.01,0.021,0.01,0.032c0.478,1.583,1.094,3.113,1.785,4.58
						c0.574,1.222,1.222,2.391,1.923,3.507c0.34,0.542,0.701,1.073,1.073,1.573c0,0,0,0.01,0.011,0.01
						c2.912,4.134,6.61,7.417,10.552,9.351c0.829,0.404,1.668,0.755,2.518,1.031c1.934,0.648,3.9,0.956,5.844,0.871
						c1.87-0.085,3.602-0.51,5.154-1.275c0.372-0.17,0.722-0.372,1.063-0.585c0.064-0.032,0.117-0.064,0.181-0.106
						c1.318-0.85,2.519-1.955,3.528-3.305C1996.246,471.279,1997.436,466.795,1997.224,461.801z M1994.822,469.037
						c-0.021,0.032-0.032,0.064-0.032,0.085c-0.531,1.721-1.286,3.273-2.274,4.58c-0.754,1.02-1.604,1.87-2.571,2.55
						c-0.149,0.117-0.298,0.223-0.457,0.319c-1.679,1.073-3.602,1.679-5.728,1.775c-2.008,0.085-4.048-0.276-6.046-1.052
						c-0.595-0.223-1.18-0.478-1.764-0.765c-4.198-2.083-8.076-5.802-10.956-10.499c-0.011,0-0.011-0.011-0.011-0.011v-0.011
						l-0.011-0.011c-0.489-0.818-0.967-1.668-1.403-2.54c-0.414-0.818-0.797-1.668-1.137-2.529
						c-0.011-0.011-0.011-0.032-0.021-0.043v-0.01c-0.51-1.286-0.935-2.572-1.286-3.942c-0.308-1.254-0.563-2.508-0.691-3.73
						c-0.106-0.691-0.159-1.371-0.181-2.061c0-0.032,0-0.074,0.01-0.117c-0.01-0.085-0.01-0.149-0.021-0.223v-0.074
						c-0.053-1.307,0-2.55,0.159-3.762c0.383-3.071,1.403-5.813,3.007-7.959c1.158-1.562,2.582-2.752,4.219-3.528
						c1.371-0.669,2.88-1.041,4.527-1.116c0.627-0.021,1.254-0.021,1.881,0.064h0.011c4.76,0.446,9.595,3.326,13.485,7.693
						c0.287,0.308,0.563,0.638,0.818,0.967v0.011l0.011,0.011c1.063,1.297,2.04,2.678,2.911,4.166v0.01
						c0.499,0.829,0.956,1.679,1.381,2.582v0.011c0.882,1.87,1.605,3.836,2.136,5.898c0.531,2.062,0.829,4.123,0.892,6.089
						C1995.789,464.436,1995.481,466.869,1994.822,469.037z"/>
				</g>
				<g>
					<path style="fill:#68A1BF;" d="M2001.538,446.222c-0.117-0.011-0.319-0.021-0.595,0c0.064,0.138,0.138,0.266,0.202,0.404
						c0.011,0.021,0.021,0.053,0.032,0.074c0.106,0.212,0.213,0.414,0.329,0.627c0.106,0.212,0.223,0.425,0.34,0.638
						c0.064,0.117,0.138,0.244,0.202,0.361c0.181,0.298,0.35,0.595,0.531,0.893c0.074,0.138,0.148,0.266,0.234,0.393
						c0.117,0.181,0.223,0.351,0.34,0.521c0.202,0.308,0.404,0.606,0.606,0.893c0.043,0.085,0.106,0.159,0.159,0.244
						c0.106,0.149,0.213,0.287,0.308,0.425c0.021,0.021,0.043,0.042,0.053,0.064c0.011,0.011,0.011,0.021,0.021,0.032
						c0.096,0.138,0.191,0.266,0.297,0.393c0.17,0.223,0.34,0.446,0.51,0.659c0.181,0.245,0.372,0.489,0.574,0.723
						c0.042,0.053,0.085,0.096,0.127,0.149c0.043,0.043,0.085,0.096,0.128,0.138c0.011,0.021,0.032,0.053,0.053,0.074
						c0.021,0.021,0.043,0.043,0.053,0.064c0.234,0.287,0.457,0.553,0.712,0.818C2004.726,452.332,2002.919,449.41,2001.538,446.222
						z M2001.538,446.222c-0.117-0.011-0.319-0.021-0.595,0c0.064,0.138,0.138,0.266,0.202,0.404
						c0.011,0.021,0.021,0.053,0.032,0.074c0.106,0.212,0.213,0.414,0.329,0.627c0.106,0.212,0.223,0.425,0.34,0.638
						c0.064,0.117,0.138,0.244,0.202,0.361c0.181,0.298,0.35,0.595,0.531,0.893c0.074,0.138,0.148,0.266,0.234,0.393
						c0.117,0.181,0.223,0.351,0.34,0.521c0.202,0.308,0.404,0.606,0.606,0.893c0.043,0.085,0.106,0.159,0.159,0.244
						c0.106,0.149,0.213,0.287,0.308,0.425c0.021,0.021,0.043,0.042,0.053,0.064c0.011,0.011,0.011,0.021,0.021,0.032
						c0.096,0.138,0.191,0.266,0.297,0.393c0.17,0.223,0.34,0.446,0.51,0.659c0.181,0.245,0.372,0.489,0.574,0.723
						c0.042,0.053,0.085,0.096,0.127,0.149c0.043,0.043,0.085,0.096,0.128,0.138c0.011,0.021,0.032,0.053,0.053,0.074
						c0.021,0.021,0.043,0.043,0.053,0.064c0.234,0.287,0.457,0.553,0.712,0.818C2004.726,452.332,2002.919,449.41,2001.538,446.222
						z M2001.538,446.222c-0.117-0.011-0.319-0.021-0.595,0c0.064,0.138,0.138,0.266,0.202,0.404
						c0.011,0.021,0.021,0.053,0.032,0.074c0.106,0.212,0.213,0.414,0.329,0.627c0.106,0.212,0.223,0.425,0.34,0.638
						c0.064,0.117,0.138,0.244,0.202,0.361c0.181,0.298,0.35,0.595,0.531,0.893c0.074,0.138,0.148,0.266,0.234,0.393
						c0.117,0.181,0.223,0.351,0.34,0.521c0.202,0.308,0.404,0.606,0.606,0.893c0.043,0.085,0.106,0.159,0.159,0.244
						c0.106,0.149,0.213,0.287,0.308,0.425c0.021,0.021,0.043,0.042,0.053,0.064c0.011,0.011,0.011,0.021,0.021,0.032
						c0.096,0.138,0.191,0.266,0.297,0.393c0.17,0.223,0.34,0.446,0.51,0.659c0.181,0.245,0.372,0.489,0.574,0.723
						c0.042,0.053,0.085,0.096,0.127,0.149c0.043,0.043,0.085,0.096,0.128,0.138c0.011,0.021,0.032,0.053,0.053,0.074
						c0.021,0.021,0.043,0.043,0.053,0.064c0.234,0.287,0.457,0.553,0.712,0.818C2004.726,452.332,2002.919,449.41,2001.538,446.222
						z M2001.538,446.222c-0.117-0.011-0.319-0.021-0.595,0c0.064,0.138,0.138,0.266,0.202,0.404
						c0.011,0.021,0.021,0.053,0.032,0.074c0.106,0.212,0.213,0.414,0.329,0.627c0.106,0.212,0.223,0.425,0.34,0.638
						c0.064,0.117,0.138,0.244,0.202,0.361c0.181,0.298,0.35,0.595,0.531,0.893c0.074,0.138,0.148,0.266,0.234,0.393
						c0.117,0.181,0.223,0.351,0.34,0.521c0.202,0.308,0.404,0.606,0.606,0.893c0.043,0.085,0.106,0.159,0.159,0.244
						c0.106,0.149,0.213,0.287,0.308,0.425c0.021,0.021,0.043,0.042,0.053,0.064c0.011,0.011,0.011,0.021,0.021,0.032
						c0.096,0.138,0.191,0.266,0.297,0.393c0.17,0.223,0.34,0.446,0.51,0.659c0.181,0.245,0.372,0.489,0.574,0.723
						c0.042,0.053,0.085,0.096,0.127,0.149c0.043,0.043,0.085,0.096,0.128,0.138c0.011,0.021,0.032,0.053,0.053,0.074
						c0.021,0.021,0.043,0.043,0.053,0.064c0.234,0.287,0.457,0.553,0.712,0.818C2004.726,452.332,2002.919,449.41,2001.538,446.222
						z M2001.538,446.222c-0.117-0.011-0.319-0.021-0.595,0c0.064,0.138,0.138,0.266,0.202,0.404
						c0.011,0.021,0.021,0.053,0.032,0.074c0.106,0.212,0.213,0.414,0.329,0.627c0.106,0.212,0.223,0.425,0.34,0.638
						c0.064,0.117,0.138,0.244,0.202,0.361c0.181,0.298,0.35,0.595,0.531,0.893c0.074,0.138,0.148,0.266,0.234,0.393
						c0.117,0.181,0.223,0.351,0.34,0.521c0.202,0.308,0.404,0.606,0.606,0.893c0.043,0.085,0.106,0.159,0.159,0.244
						c0.106,0.149,0.213,0.287,0.308,0.425c0.021,0.021,0.043,0.042,0.053,0.064c0.011,0.011,0.011,0.021,0.021,0.032
						c0.096,0.138,0.191,0.266,0.297,0.393c0.17,0.223,0.34,0.446,0.51,0.659c0.181,0.245,0.372,0.489,0.574,0.723
						c0.042,0.053,0.085,0.096,0.127,0.149c0.043,0.043,0.085,0.096,0.128,0.138c0.011,0.021,0.032,0.053,0.053,0.074
						c0.021,0.021,0.043,0.043,0.053,0.064c0.234,0.287,0.457,0.553,0.712,0.818C2004.726,452.332,2002.919,449.41,2001.538,446.222
						z M2001.538,446.222c-0.117-0.011-0.319-0.021-0.595,0c0.064,0.138,0.138,0.266,0.202,0.404
						c0.011,0.021,0.021,0.053,0.032,0.074c0.106,0.212,0.213,0.414,0.329,0.627c0.106,0.212,0.223,0.425,0.34,0.638
						c0.064,0.117,0.138,0.244,0.202,0.361c0.181,0.298,0.35,0.595,0.531,0.893c0.074,0.138,0.148,0.266,0.234,0.393
						c0.117,0.181,0.223,0.351,0.34,0.521c0.202,0.308,0.404,0.606,0.606,0.893c0.043,0.085,0.106,0.159,0.159,0.244
						c0.106,0.149,0.213,0.287,0.308,0.425c0.021,0.021,0.043,0.042,0.053,0.064c0.011,0.011,0.011,0.021,0.021,0.032
						c0.096,0.138,0.191,0.266,0.297,0.393c0.17,0.223,0.34,0.446,0.51,0.659c0.181,0.245,0.372,0.489,0.574,0.723
						c0.042,0.053,0.085,0.096,0.127,0.149c0.043,0.043,0.085,0.096,0.128,0.138c0.011,0.021,0.032,0.053,0.053,0.074
						c0.021,0.021,0.043,0.043,0.053,0.064c0.234,0.287,0.457,0.553,0.712,0.818C2004.726,452.332,2002.919,449.41,2001.538,446.222
						z M2001.538,446.222c-0.117-0.011-0.319-0.021-0.595,0c0.064,0.138,0.138,0.266,0.202,0.404
						c0.011,0.021,0.021,0.053,0.032,0.074c0.106,0.212,0.213,0.414,0.329,0.627c0.106,0.212,0.223,0.425,0.34,0.638
						c0.064,0.117,0.138,0.244,0.202,0.361c0.181,0.298,0.35,0.595,0.531,0.893c0.074,0.138,0.148,0.266,0.234,0.393
						c0.117,0.181,0.223,0.351,0.34,0.521c0.202,0.308,0.404,0.606,0.606,0.893c0.043,0.085,0.106,0.159,0.159,0.244
						c0.106,0.149,0.213,0.287,0.308,0.425c0.021,0.021,0.043,0.042,0.053,0.064c0.011,0.011,0.011,0.021,0.021,0.032
						c0.096,0.138,0.191,0.266,0.297,0.393c0.17,0.223,0.34,0.446,0.51,0.659c0.181,0.245,0.372,0.489,0.574,0.723
						c0.042,0.053,0.085,0.096,0.127,0.149c0.043,0.043,0.085,0.096,0.128,0.138c0.011,0.021,0.032,0.053,0.053,0.074
						c0.021,0.021,0.043,0.043,0.053,0.064c0.234,0.287,0.457,0.553,0.712,0.818C2004.726,452.332,2002.919,449.41,2001.538,446.222
						z M2030.526,440.622c-3.592-12.571-13.665-22.528-22.421-22.23c-0.181,0.011-0.383,0.011-0.553,0.032l-0.011,0.011h-0.011
						c-0.744,0.064-1.424,0.181-2.104,0.383h-0.011c-0.946,0.287-1.817,0.712-2.635,1.254c-0.999,0.669-1.87,1.541-2.667,2.582
						c-3.252,4.463-3.9,11.753-1.69,19.457c0.149,0.5,0.297,0.988,0.467,1.488v0.011c0.297,0.914,0.638,1.817,1.031,2.699v0.011
						c0.797,1.955,1.774,3.804,2.848,5.526c2.37,3.772,5.281,6.939,8.395,9.149l0.011-0.011l0.011,0.011
						c3.135,2.242,6.482,3.464,9.67,3.358c0.202-0.01,0.393-0.021,0.584-0.042c0.021,0,0.042-0.011,0.053,0h0.011
						c1.604-0.138,3.082-0.638,4.389-1.445c1.116-0.701,2.104-1.615,2.922-2.773
						C2032.099,455.616,2032.726,448.348,2030.526,440.622z M2019.879,462.789c0,0-0.021,0.011-0.021,0
						c-0.021,0.011-0.032-0.011-0.053-0.011c-1.955-0.096-3.974-0.755-5.962-1.881c-2.37-1.328-4.675-3.294-6.758-5.717
						c-0.085-0.106-0.181-0.234-0.287-0.329c-0.011-0.011-0.021-0.032-0.043-0.043c-2.029-2.476-3.836-5.398-5.217-8.586
						c-0.404-0.935-0.776-1.881-1.095-2.837l-0.01-0.011c-0.181-0.563-0.351-1.126-0.521-1.69
						c-1.052-3.645-1.434-7.141-1.179-10.265c0.244-2.975,1.084-5.6,2.465-7.608c0.011-0.011,0.021-0.011,0.021-0.021
						c0.042-0.096,0.106-0.17,0.159-0.244c0.712-0.978,1.551-1.764,2.497-2.359c0.829-0.521,1.753-0.882,2.741-1.073
						c0.5-0.106,0.989-0.17,1.52-0.191c8.108-0.276,17.48,9.192,20.912,21.136c0.011,0.053,0.021,0.106,0.032,0.16
						c0.011,0.01,0.011,0.01,0.011,0.01s0,0.011,0.011,0.021c0.011,0.011,0.011,0.053,0.021,0.064s0.01,0.021,0.01,0.032
						c0,0.01,0,0.01,0,0.021c1.977,7.162,1.392,13.782-1.562,17.831c-1.477,2.04-3.517,3.252-5.908,3.549h-0.01
						c-0.287,0.043-0.553,0.053-0.829,0.074c-0.244,0-0.489,0.011-0.733-0.021c-0.011,0-0.032,0.011-0.053,0.011
						C2019.985,462.81,2019.932,462.799,2019.879,462.789z M2001.538,446.222c-0.117-0.011-0.319-0.021-0.595,0
						c0.064,0.138,0.138,0.266,0.202,0.404c0.011,0.021,0.021,0.053,0.032,0.074c0.106,0.212,0.213,0.414,0.329,0.627
						c0.106,0.212,0.223,0.425,0.34,0.638c0.064,0.117,0.138,0.244,0.202,0.361c0.181,0.298,0.35,0.595,0.531,0.893
						c0.074,0.138,0.148,0.266,0.234,0.393c0.117,0.181,0.223,0.351,0.34,0.521c0.202,0.308,0.404,0.606,0.606,0.893
						c0.043,0.085,0.106,0.159,0.159,0.244c0.106,0.149,0.213,0.287,0.308,0.425c0.021,0.021,0.043,0.042,0.053,0.064
						c0.011,0.011,0.011,0.021,0.021,0.032c0.096,0.138,0.191,0.266,0.297,0.393c0.17,0.223,0.34,0.446,0.51,0.659
						c0.181,0.245,0.372,0.489,0.574,0.723c0.042,0.053,0.085,0.096,0.127,0.149c0.043,0.043,0.085,0.096,0.128,0.138
						c0.011,0.021,0.032,0.053,0.053,0.074c0.021,0.021,0.043,0.043,0.053,0.064c0.234,0.287,0.457,0.553,0.712,0.818
						C2004.726,452.332,2002.919,449.41,2001.538,446.222z M2001.538,446.222c-0.117-0.011-0.319-0.021-0.595,0
						c0.064,0.138,0.138,0.266,0.202,0.404c0.011,0.021,0.021,0.053,0.032,0.074c0.106,0.212,0.213,0.414,0.329,0.627
						c0.106,0.212,0.223,0.425,0.34,0.638c0.064,0.117,0.138,0.244,0.202,0.361c0.181,0.298,0.35,0.595,0.531,0.893
						c0.074,0.138,0.148,0.266,0.234,0.393c0.117,0.181,0.223,0.351,0.34,0.521c0.202,0.308,0.404,0.606,0.606,0.893
						c0.043,0.085,0.106,0.159,0.159,0.244c0.106,0.149,0.213,0.287,0.308,0.425c0.021,0.021,0.043,0.042,0.053,0.064
						c0.011,0.011,0.011,0.021,0.021,0.032c0.096,0.138,0.191,0.266,0.297,0.393c0.17,0.223,0.34,0.446,0.51,0.659
						c0.181,0.245,0.372,0.489,0.574,0.723c0.042,0.053,0.085,0.096,0.127,0.149c0.043,0.043,0.085,0.096,0.128,0.138
						c0.011,0.021,0.032,0.053,0.053,0.074c0.021,0.021,0.043,0.043,0.053,0.064c0.234,0.287,0.457,0.553,0.712,0.818
						C2004.726,452.332,2002.919,449.41,2001.538,446.222z M2001.538,446.222c-0.117-0.011-0.319-0.021-0.595,0
						c0.064,0.138,0.138,0.266,0.202,0.404c0.011,0.021,0.021,0.053,0.032,0.074c0.106,0.212,0.213,0.414,0.329,0.627
						c0.106,0.212,0.223,0.425,0.34,0.638c0.064,0.117,0.138,0.244,0.202,0.361c0.181,0.298,0.35,0.595,0.531,0.893
						c0.074,0.138,0.148,0.266,0.234,0.393c0.117,0.181,0.223,0.351,0.34,0.521c0.202,0.308,0.404,0.606,0.606,0.893
						c0.043,0.085,0.106,0.159,0.159,0.244c0.106,0.149,0.213,0.287,0.308,0.425c0.021,0.021,0.043,0.042,0.053,0.064
						c0.011,0.011,0.011,0.021,0.021,0.032c0.096,0.138,0.191,0.266,0.297,0.393c0.17,0.223,0.34,0.446,0.51,0.659
						c0.181,0.245,0.372,0.489,0.574,0.723c0.042,0.053,0.085,0.096,0.127,0.149c0.043,0.043,0.085,0.096,0.128,0.138
						c0.011,0.021,0.032,0.053,0.053,0.074c0.021,0.021,0.043,0.043,0.053,0.064c0.234,0.287,0.457,0.553,0.712,0.818
						C2004.726,452.332,2002.919,449.41,2001.538,446.222z M2001.538,446.222c-0.117-0.011-0.319-0.021-0.595,0
						c0.064,0.138,0.138,0.266,0.202,0.404c0.011,0.021,0.021,0.053,0.032,0.074c0.106,0.212,0.213,0.414,0.329,0.627
						c0.106,0.212,0.223,0.425,0.34,0.638c0.064,0.117,0.138,0.244,0.202,0.361c0.181,0.298,0.35,0.595,0.531,0.893
						c0.074,0.138,0.148,0.266,0.234,0.393c0.117,0.181,0.223,0.351,0.34,0.521c0.202,0.308,0.404,0.606,0.606,0.893
						c0.043,0.085,0.106,0.159,0.159,0.244c0.106,0.149,0.213,0.287,0.308,0.425c0.021,0.021,0.043,0.042,0.053,0.064
						c0.011,0.011,0.011,0.021,0.021,0.032c0.096,0.138,0.191,0.266,0.297,0.393c0.17,0.223,0.34,0.446,0.51,0.659
						c0.181,0.245,0.372,0.489,0.574,0.723c0.042,0.053,0.085,0.096,0.127,0.149c0.043,0.043,0.085,0.096,0.128,0.138
						c0.011,0.021,0.032,0.053,0.053,0.074c0.021,0.021,0.043,0.043,0.053,0.064c0.234,0.287,0.457,0.553,0.712,0.818
						C2004.726,452.332,2002.919,449.41,2001.538,446.222z M2001.538,446.222c-0.117-0.011-0.319-0.021-0.595,0
						c0.064,0.138,0.138,0.266,0.202,0.404c0.011,0.021,0.021,0.053,0.032,0.074c0.106,0.212,0.213,0.414,0.329,0.627
						c0.106,0.212,0.223,0.425,0.34,0.638c0.064,0.117,0.138,0.244,0.202,0.361c0.181,0.298,0.35,0.595,0.531,0.893
						c0.074,0.138,0.148,0.266,0.234,0.393c0.117,0.181,0.223,0.351,0.34,0.521c0.202,0.308,0.404,0.606,0.606,0.893
						c0.043,0.085,0.106,0.159,0.159,0.244c0.106,0.149,0.213,0.287,0.308,0.425c0.021,0.021,0.043,0.042,0.053,0.064
						c0.011,0.011,0.011,0.021,0.021,0.032c0.096,0.138,0.191,0.266,0.297,0.393c0.17,0.223,0.34,0.446,0.51,0.659
						c0.181,0.245,0.372,0.489,0.574,0.723c0.042,0.053,0.085,0.096,0.127,0.149c0.043,0.043,0.085,0.096,0.128,0.138
						c0.011,0.021,0.032,0.053,0.053,0.074c0.021,0.021,0.043,0.043,0.053,0.064c0.234,0.287,0.457,0.553,0.712,0.818
						C2004.726,452.332,2002.919,449.41,2001.538,446.222z M2001.538,446.222c-0.117-0.011-0.319-0.021-0.595,0
						c0.064,0.138,0.138,0.266,0.202,0.404c0.011,0.021,0.021,0.053,0.032,0.074c0.106,0.212,0.213,0.414,0.329,0.627
						c0.106,0.212,0.223,0.425,0.34,0.638c0.064,0.117,0.138,0.244,0.202,0.361c0.181,0.298,0.35,0.595,0.531,0.893
						c0.074,0.138,0.148,0.266,0.234,0.393c0.117,0.181,0.223,0.351,0.34,0.521c0.202,0.308,0.404,0.606,0.606,0.893
						c0.043,0.085,0.106,0.159,0.159,0.244c0.106,0.149,0.213,0.287,0.308,0.425c0.021,0.021,0.043,0.042,0.053,0.064
						c0.011,0.011,0.011,0.021,0.021,0.032c0.096,0.138,0.191,0.266,0.297,0.393c0.17,0.223,0.34,0.446,0.51,0.659
						c0.181,0.245,0.372,0.489,0.574,0.723c0.042,0.053,0.085,0.096,0.127,0.149c0.043,0.043,0.085,0.096,0.128,0.138
						c0.011,0.021,0.032,0.053,0.053,0.074c0.021,0.021,0.043,0.043,0.053,0.064c0.234,0.287,0.457,0.553,0.712,0.818
						C2004.726,452.332,2002.919,449.41,2001.538,446.222z M2001.538,446.222c-0.117-0.011-0.319-0.021-0.595,0
						c0.064,0.138,0.138,0.266,0.202,0.404c0.011,0.021,0.021,0.053,0.032,0.074c0.106,0.212,0.213,0.414,0.329,0.627
						c0.106,0.212,0.223,0.425,0.34,0.638c0.064,0.117,0.138,0.244,0.202,0.361c0.181,0.298,0.35,0.595,0.531,0.893
						c0.074,0.138,0.148,0.266,0.234,0.393c0.117,0.181,0.223,0.351,0.34,0.521c0.202,0.308,0.404,0.606,0.606,0.893
						c0.043,0.085,0.106,0.159,0.159,0.244c0.106,0.149,0.213,0.287,0.308,0.425c0.021,0.021,0.043,0.042,0.053,0.064
						c0.011,0.011,0.011,0.021,0.021,0.032c0.096,0.138,0.191,0.266,0.297,0.393c0.17,0.223,0.34,0.446,0.51,0.659
						c0.181,0.245,0.372,0.489,0.574,0.723c0.042,0.053,0.085,0.096,0.127,0.149c0.043,0.043,0.085,0.096,0.128,0.138
						c0.011,0.021,0.032,0.053,0.053,0.074c0.021,0.021,0.043,0.043,0.053,0.064c0.234,0.287,0.457,0.553,0.712,0.818
						C2004.726,452.332,2002.919,449.41,2001.538,446.222z M2001.538,446.222c-0.117-0.011-0.319-0.021-0.595,0
						c0.064,0.138,0.138,0.266,0.202,0.404c0.011,0.021,0.021,0.053,0.032,0.074c0.106,0.212,0.213,0.414,0.329,0.627
						c0.106,0.212,0.223,0.425,0.34,0.638c0.064,0.117,0.138,0.244,0.202,0.361c0.181,0.298,0.35,0.595,0.531,0.893
						c0.074,0.138,0.148,0.266,0.234,0.393c0.117,0.181,0.223,0.351,0.34,0.521c0.202,0.308,0.404,0.606,0.606,0.893
						c0.043,0.085,0.106,0.159,0.159,0.244c0.106,0.149,0.213,0.287,0.308,0.425c0.021,0.021,0.043,0.042,0.053,0.064
						c0.011,0.011,0.011,0.021,0.021,0.032c0.096,0.138,0.191,0.266,0.297,0.393c0.17,0.223,0.34,0.446,0.51,0.659
						c0.181,0.245,0.372,0.489,0.574,0.723c0.042,0.053,0.085,0.096,0.127,0.149c0.043,0.043,0.085,0.096,0.128,0.138
						c0.011,0.021,0.032,0.053,0.053,0.074c0.021,0.021,0.043,0.043,0.053,0.064c0.234,0.287,0.457,0.553,0.712,0.818
						C2004.726,452.332,2002.919,449.41,2001.538,446.222z"/>
				</g>
				<g>
					<path style="fill:#331832;" d="M2002.558,446.01c0.363-0.227,0.623-0.61,0.672-1.065c0.086-0.786-0.486-1.489-1.276-1.57
						c-0.253-0.026-6.26-0.567-11.928,5.047c-0.565,0.56-0.569,1.466-0.01,2.023c0.559,0.559,1.472,0.558,2.034-0.001
						c4.704-4.663,9.546-4.228,9.594-4.223C2001.978,446.256,2002.296,446.174,2002.558,446.01z"/>
				</g>
				<path style="fill:#FFFFFF;" d="M1996.42,475.334c0,0,13.272-2.745,16.592-9.342c0,0,2.46,10.286-4.582,12.965
					C2001.388,481.635,1996.42,475.334,1996.42,475.334z"/>
				<g>
					<path style="fill:#331832;" d="M1753.718,526.228c-2.281-10.026,1.154-20.911,9.681-30.636
						c12.825-14.643,33.648-22.818,53.087-21.134c32.978,3.067,43.395-5.231,50.46-40.317c8.972-44.588,81.348-41.956,82.067-41.956
						l-0.089,2.119c-0.719,0.011-71.277-2.554-79.892,40.261c-7.283,36.112-18.664,45.146-52.741,42.012
						c-18.714-1.729-38.901,6.268-51.297,20.409c-8.063,9.201-11.331,19.417-9.201,28.774L1753.718,526.228z"/>
				</g>
			</g>
			<path style="fill:#E7F3F1;" d="M1941.042,529.175c0,0-47.285,4.532-96.86,26.384c-27.496,12.12-51.993,27.888-78.34,55.164
				c0,0,10.486,58.651,65.471,71.219c54.985,12.568,88.88-82.477,88.88-82.477L1941.042,529.175z"/>
			<path style="fill:#E7F3F1;" d="M2005.104,515.35c0,0,47.148-15.874,81.816-31.484c0,0,44.113,88.81-24.448,127.732
				c-68.561,38.923-47.997-62.406-47.997-62.406L2005.104,515.35z"/>
			<g>
				<path style="fill:#EF8062;" d="M1600,955.556c0,0,20.977-14.074,24.249-47.704c3.767-38.722,51.937-52.864,65.822-26.148
					c23.303,44.839-33.515,91.132-84.834,101.867c0,0,14.401-11.521,16.234-28.54C1621.47,955.032,1609.146,957.045,1600,955.556z"
					/>
				<path style="fill:#FFD283;" d="M1632.991,941.94c0,0,13.353-12.568,12.568-28.278s13.877-25.136,24.35-13.092
					C1680.383,912.615,1652.367,938.013,1632.991,941.94z"/>
			</g>
		</g>
	</g>
	<g>
		<defs>
			
				<filter id="Adobe_OpacityMaskFilter_00000129188462156261684010000006609593902165525656_" filterUnits="userSpaceOnUse" x="416.059" y="831.984" width="743.807" height="979.697">
				<feFlood  style="flood-color:white;flood-opacity:1" result="back"/>
				<feBlend  in="SourceGraphic" in2="back" mode="normal"/>
			</filter>
		</defs>
		
			<mask maskUnits="userSpaceOnUse" x="416.059" y="831.984" width="743.807" height="979.697" id="SVGID_00000011714116072225357230000005341424415260255901_">
			<g style="filter:url(#Adobe_OpacityMaskFilter_00000129188462156261684010000006609593902165525656_);">
				<defs>
					
						<filter id="Adobe_OpacityMaskFilter_00000161633887961743461270000016994924193269763208_" filterUnits="userSpaceOnUse" x="416.059" y="831.984" width="743.807" height="979.697">
						<feFlood  style="flood-color:white;flood-opacity:1" result="back"/>
						<feBlend  in="SourceGraphic" in2="back" mode="normal"/>
					</filter>
				</defs>
				
					<mask maskUnits="userSpaceOnUse" x="416.059" y="831.984" width="743.807" height="979.697" id="SVGID_00000011714116072225357230000005341424415260255901_">
					<g style="filter:url(#Adobe_OpacityMaskFilter_00000161633887961743461270000016994924193269763208_);">
					</g>
				</mask>
				
					<linearGradient id="SVGID_00000074408802142734504050000005487462968565550722_" gradientUnits="userSpaceOnUse" x1="787.9628" y1="831.984" x2="787.9628" y2="1811.6814">
					<stop  offset="0" style="stop-color:#FFFFFF"/>
					<stop  offset="1" style="stop-color:#000000"/>
				</linearGradient>
				
					<path style="mask:url(#SVGID_00000011714116072225357230000005341424415260255901_);fill:url(#SVGID_00000074408802142734504050000005487462968565550722_);" d="
					M1159.866,856.707l-7.89,47.36v0.011l-2.423,14.551v0.011l-2.912,17.475l-1.576,9.498l-56.391,338.715v0.011l-54.956,330.043
					l-31.146,187.125c-39.731,1.348-78.745,2.717-116.335,3.988c-21.811,0.75-43.154,1.456-63.879,2.119h-0.011
					c-10.531,0.326-20.909,0.652-31.103,0.967c-11.737,0.337-23.245,0.685-34.493,0.978c-38.373,1.054-73.714,1.815-104.946,2.108
					c-93.916,0.902-178.214-43.35-235.746-113.64l637.915-792.308l26.234-32.591l0.032-0.054l33.102-41.09l38.036,20.213
					L1159.866,856.707z"/>
			</g>
		</mask>
		
			<linearGradient id="SVGID_00000050632181240381098590000012060036505820018846_" gradientUnits="userSpaceOnUse" x1="787.9628" y1="831.984" x2="787.9628" y2="1811.6814">
			<stop  offset="0" style="stop-color:#FFFFFF"/>
			<stop  offset="1" style="stop-color:#FFFFFF"/>
		</linearGradient>
		<path style="fill:url(#SVGID_00000050632181240381098590000012060036505820018846_);" d="M1159.866,856.707l-7.89,47.36v0.011
			l-2.423,14.551v0.011l-2.912,17.475l-1.576,9.498l-56.391,338.715v0.011l-54.956,330.043l-31.146,187.125
			c-39.731,1.348-78.745,2.717-116.335,3.988c-21.811,0.75-43.154,1.456-63.879,2.119h-0.011
			c-10.531,0.326-20.909,0.652-31.103,0.967c-11.737,0.337-23.245,0.685-34.493,0.978c-38.373,1.054-73.714,1.815-104.946,2.108
			c-93.916,0.902-178.214-43.35-235.746-113.64l637.915-792.308l26.234-32.591l0.032-0.054l33.102-41.09l38.036,20.213
			L1159.866,856.707z"/>
		<g>
			<path style="fill:#331832;" d="M1096.339,972.845l-43.245-24.929c-6.602-3.806-8.89-12.321-5.084-18.923l126.72-219.825
				c3.806-6.602,12.321-8.89,18.923-5.084l43.245,24.929c6.602,3.806,8.89,12.321,5.084,18.923l-126.72,219.826
				C1111.456,974.363,1102.941,976.651,1096.339,972.845z"/>
			<path style="fill:#6DA49A;" d="M1083.425,945.273L1083.425,945.273c-29.745-17.147-40.053-55.513-22.906-85.258l137.548-238.609
				c17.147-29.745,55.513-40.053,85.259-22.906v0c29.745,17.147,40.053,55.513,22.906,85.258l-137.549,238.609
				C1151.536,952.112,1113.17,962.42,1083.425,945.273z"/>
			<path style="fill:#6DA49A;" d="M1188.342,963.776L1188.342,963.776c-29.745-17.147-40.053-55.513-22.906-85.258l137.549-238.609
				c17.147-29.745,55.513-40.053,85.258-22.906v0c29.745,17.147,40.053,55.513,22.906,85.258L1273.6,940.87
				C1256.453,970.615,1218.087,980.923,1188.342,963.776z"/>
			<path style="fill:#331832;" d="M1217.107,1313.722c0,0-19.817,10.549-23.748,35.256c-3.105,19.517,2.282,61.681-21.369,50.364
				c-13.571-6.493-28.925-58.104-34.914-71.959c-5.99-13.857-17.606-24.276-12.854-38.551c5.229-15.705,60.275-35.75,60.275-35.75
				s-2.586,18.802,2.339,29.435C1193.935,1297.841,1217.107,1313.722,1217.107,1313.722z"/>
			<path style="fill:#331832;" d="M978.672,1429.373c0,0-20.876,21.204-12.732,39.211c8.145,18.006,29.166,55.782,2.966,54.806
				c-15.034-0.56-49.648-41.807-60.654-52.137c-11.007-10.332-25.809-15.271-27.126-30.259
				c-1.449-16.489,45.121-48.069,45.121-48.069s4.889,13.825,13.637,21.622C952.491,1425.783,978.672,1429.373,978.672,1429.373z"/>
			<g>
				<path style="fill:#FFB27D;" d="M1741.298,451.737c-18.845,18.858-34.556,27.955-34.556,27.955s-54.096-25.81-54.469-31.351
					c-0.859-12.781,3.632-38.099,3.041-50.882c-0.256-5.542,0.276-24.18,6.228-24.919c5.173-0.642,12.415,14.649,14.927,22.271
					c21.313-30.024,67.453-64.488,27.904,1.608c0.04,0.021,0.082,0.044,0.121,0.065c4.688-6.318,33.282-46.695,40.268-37.277
					c6.166,8.312-13.852,39.463-21.437,49.935c0.101,0.08,0.201,0.16,0.302,0.239c8.745-9.991,34.363-38.732,37.516-29.196
					c3.958,11.97-20.712,43.096-20.712,43.096s20.945-28.679,27.336-15.314c4.359,9.115-14.661,30.795-22.84,40.397
					C1743.749,449.748,1742.536,450.846,1741.298,451.737z"/>
			</g>
			<path style="fill:#366F90;" d="M1348.904,941.203l-370.232,488.17c-14.481,20.348-91.72-10.216-62.166-53.442l238.321-467.641
				c3.321-5.514,66.48,30.18,72.861,29.5C1262.272,934.108,1348.904,941.203,1348.904,941.203z"/>
			<path style="fill:#366F90;" d="M1360.86,942.969c10.697,1.093,22.361-12.589,27.649-3.804
				c25.468,42.314,115.248,215.599,52.382,274.717c-21.856,20.553-234.527,104.089-234.527,104.089
				c-15.186,3.837-31.163-2.805-38.364-15.912v0c-13.734-24.998-10.728-47.894,13.941-63.89
				c30.94-20.063,74.672-35.409,130.21-81.019c8.261-6.784-31.862-103.857-51.65-140.986c-4.94-9.269-4.67-20.219,0.718-29.265
				l17.779-29.849c6.541-10.982,2.164-20.217,15.503-18.854L1360.86,942.969z"/>
			<g>
				<path style="fill:#331832;" d="M1275.743,1046.634l-1.249-0.647c13.863-26.755,32.75-34.941,32.94-35.019l0.546,1.294
					C1307.796,1012.34,1289.355,1020.37,1275.743,1046.634z"/>
			</g>
			<g>
				<path style="fill:#FFB27D;" d="M1658.551,418.914c-47.501,63.273-150.181,169.565-238.02,216.273
					c-9.737,5.177-10.895,26.884-1.132,42.868c9.16,14.998,36.804,46.781,42.48,44.851c9.655-3.284,140.93-74.215,248.918-247.587
					c0,0-3.453-15.32-20.109-31.902C1683.734,436.493,1658.551,418.914,1658.551,418.914z"/>
			</g>
			<path style="fill:#EF8062;" d="M1475.286,707.934c-9.779-88.512-28.38-88.221-28.38-88.221s-34.573,8.616-56.719,9.595
				c-24.91,1.102-32.292-4.267-44.634-4.572c-65.165-1.612-141.773,42.521-151.011,113.831
				c-4.117,31.779-15.208,51.259-30.689,85.608c-27.163,60.268-40.411,94.235-40.745,96.916
				c106.393,78.609,287.189,46.238,287.189,46.238c33.126-102.209,41.334-131.497,51.582-167.929
				C1481.455,729.804,1476.123,711.86,1475.286,707.934z"/>
			<path style="fill:#FFB27D;" d="M954.328,847.301c17.714-12.43,31.591-17.409,31.591-17.409s40.093,29.299,39.648,33.86
				c-1.028,10.521-8.052,30.41-9.296,40.891c-0.539,4.544-3.476,19.613-8.368,19.297c-4.252-0.274-8.027-13.817-9.024-20.399
				c-21.204,21.127-63,42.046-22.256-5.599c-0.029-0.023-0.06-0.049-0.089-0.072c-4.625,4.415-33.087,32.837-37.445,24.108
				c-3.847-7.705,16.466-29.947,23.984-37.293c-0.07-0.08-0.141-0.161-0.211-0.241c-8.387,6.776-32.886,26.199-34.142,17.962
				c-1.577-10.339,22.479-31.845,22.479-31.845s-20.727,20.091-24.076,8.244c-2.284-8.079,15.951-22.777,23.83-29.324
				C952.086,848.541,953.211,847.835,954.328,847.301z"/>
			<g>
				<path style="fill:#FFB27D;" d="M1020.267,886.942c64.126-68.356,167.339-116.487,256.776-157.126
					c20.724-9.416-1.688-12.645,11.354-16.393c10.495-3.016,15.079-24.553,8.129-42.19c-6.521-16.549-26.595-30.889-32.474-30.042
					c-10,1.441-24.789,7.727-48.099,17.848c-80.993,35.165-148.049,83.007-240.688,175.645c0,0,8.057,2.206,20.213,22.932
					C1002.356,869.343,1020.267,886.942,1020.267,886.942z"/>
			</g>
			<path style="fill:#EF8062;" d="M1180.538,670.088c0,0,47.427-42.178,161.874-45.422l-42.571,98.323l-50.149,36.141
				C1249.692,759.13,1193.319,730.836,1180.538,670.088z"/>
			<path style="fill:#EF8062;" d="M1383.042,623.185c0,0,65.522-8.91,106.421-33.652c0,0,32.041,77.148,13.295,118.899
				c0,0-22.396,16.882-31.638,53.925c-9.242,37.044-34.536-54.777-34.536-54.777L1383.042,623.185z"/>
			<path style="fill:#FFB27D;" d="M1399.091,654.325c-12.386,3.834-49.439-0.521-56.679-29.659
				c0.048,0.001,16.876,1.38,20.601-7.997c3.335-8.394,12.179-31.201,12.179-31.201l0.105-5.32l16.262-48.291l2.305,48.125
				l0.578,11.748l0.031,0.59l0.589,12.247l0.017,0.227c0,0-0.199,15.578,16.645,13.008
				C1411.725,617.802,1426.882,645.721,1399.091,654.325z"/>
			<g>
				<g>
					<path style="fill:#5C305D;" d="M1422.385,505.616c0,0,6.129,10.356,7.182,25.207c1.054,14.851-23.142-15.57-23.142-15.57
						L1422.385,505.616z"/>
					
						<ellipse transform="matrix(0.9131 -0.4077 0.4077 0.9131 -103.7374 615.7819)" style="fill:#FFB27D;" cx="1392.917" cy="551.286" rx="42.973" ry="51.513"/>
					<path style="fill:#331832;" d="M1348.333,554.302l19.446-7.703c4.275-1.693,7.636-5.175,8.965-9.549
						c2.287-7.529,6.295-12.194,25.181-16.76c23.914-5.782,35.551-24.178,34.607-37.183c-0.964-13.273-15.494-18.363-25.676-9.037
						c-10.182,9.325-9.258-6.772-21.13-5.11c-22.186,3.106-21.533,20.567-39.17,24.96c-23.126,5.76-59.271,34.61-28.383,69.17
						L1348.333,554.302z"/>
					<g>
						<path style="fill:#080435;" d="M1394.504,548.599c0.177-0.196,0.262-0.468,0.207-0.745c-0.092-0.468-0.548-0.774-1.021-0.683
							c-0.278,0.054-6.844,0.705-8.114,8.184c-0.08,0.471,0.222,0.922,0.695,1.011c0.473,0.088,0.829-0.251,1.019-0.691
							c1.903-4.402,6.503-6.758,6.733-6.805C1394.216,548.832,1394.381,548.734,1394.504,548.599z"/>
					</g>
					<path style="fill:#080435;" d="M1393.909,560.301c1.073,1.768,2.991,2.574,4.284,1.8c1.294-0.774,1.472-2.835,0.399-4.603
						c-1.073-1.768-2.991-2.574-4.285-1.8C1393.014,556.472,1392.836,558.533,1393.909,560.301z"/>
					<g>
						<path style="fill:#080435;" d="M1424.837,537.388c0.184-0.088,0.315-0.282,0.335-0.543c0.035-0.44-0.253-0.902-0.646-1.034
							c-0.231-0.077-5.554-2.434-8.279,3.373c-0.172,0.366-0.038,0.884,0.315,1.169c0.352,0.285,0.71,0.154,0.962-0.137
							c2.514-2.905,6.681-2.873,6.873-2.81C1424.557,537.459,1424.71,537.449,1424.837,537.388z"/>
					</g>
					<path style="fill:#080435;" d="M1419.617,548.073c0.313,2.041,1.777,3.512,3.269,3.284c1.492-0.227,2.449-2.065,2.135-4.106
						c-0.313-2.041-1.777-3.511-3.269-3.284C1420.26,544.193,1419.304,546.032,1419.617,548.073z"/>
					<path style="fill:#5C305D;" d="M1322.172,563.088c0,0,22.272,25.727,42.51,22.375c0,0-22.296-18.107,7.22-41.279
						C1371.903,544.184,1339.839,548.036,1322.172,563.088z"/>
					<path style="fill:#FFB27D;" d="M1354.488,571.648c4.95,1.467,10.038-0.904,11.364-5.296c1.326-4.392-1.613-9.141-6.564-10.609
						c-4.95-1.467-10.038,0.904-11.364,5.296C1346.598,565.43,1349.537,570.18,1354.488,571.648z"/>
					<path style="fill:#5C305D;" d="M1371.903,544.184c0,0,4.405,25.612,10.843,28.875c6.438,3.263,40.685-4.196,54.682-14.645h0
						c4.81,15.891-2.516,33.178-17.632,40.292c-5.001,2.353-10.43,3.889-16.091,4.472h0c-11.543,1.189-23.524-0.313-30.944-9.161
						c-2.258-2.692-3.643-22.775-3.643-22.775s-1.661-11.548-9.83-15.499C1359.288,555.743,1364.904,546.91,1371.903,544.184z"/>
					<g>
						<path style="fill:#331832;" d="M1405.315,473.197c-4.322,0-5.839-3.781-5.855-3.825l1.093-0.424
							c0.067,0.178,1.757,4.383,7.199,2.665l0.346,1.115C1407.066,473.052,1406.14,473.197,1405.315,473.197z"/>
					</g>
					<g>
						<path style="fill:#FFFFFF;" d="M1406.753,511.819l-0.312-0.491c0.234-0.145,23.304-14.643,20.683-27.792
							c-0.742-3.714-2.035-5.944-3.959-6.848c-3.145-1.472-7.355,0.881-11.097,2.944c-0.58,0.312-1.143,0.625-1.695,0.915
							l-0.268-0.513c0.541-0.29,1.104-0.602,1.684-0.915c3.876-2.119,8.264-4.528,11.621-2.956c2.108,0.982,3.508,3.357,4.283,7.26
							C1430.397,496.975,1407.718,511.217,1406.753,511.819z"/>
					</g>
					<g>
						<path style="fill:#FFFFFF;" d="M1342.034,501.313l-0.078-0.58c25.512-3.625,33.452-20.655,33.53-20.833l0.535,0.245
							C1375.944,480.313,1367.881,497.644,1342.034,501.313z"/>
					</g>
					<g>
						<path style="fill:#FFB27D;" d="M1412.497,581.322c-6.619,0-11.766-2.677-11.855-2.721c-0.474-0.257-0.658-0.848-0.401-1.327
							c0.245-0.48,0.859-0.658,1.322-0.413c0.591,0.312,14.56,7.55,25.423-3.714c0.362-0.401,0.987-0.413,1.383-0.022
							c0.39,0.368,0.402,0.993,0.022,1.383C1423.287,579.805,1417.471,581.322,1412.497,581.322z"/>
					</g>
				</g>
			</g>
			<g>
				<path style="fill:#EF8062;" d="M972.36,1054.224c0,0,23.32-12.881,29.814-47.92c7.478-40.344,59.377-50.826,71.538-21.492
					c20.41,49.232-43.497,92.71-98.396,99.326c0,0,16.178-10.796,19.651-28.512C994.967,1055.625,981.835,1056.62,972.36,1054.224z"
					/>
				<path style="fill:#FFD283;" d="M1013.548,1044.711c0,0,13.667-13.684,12.327-30.219c-1.34-16.535,13.81-26.949,25.243-14.594
					C1062.551,1012.254,1033.845,1039.939,1013.548,1044.711z"/>
			</g>
		</g>
	</g>
	<path style="fill:#EBF3FC;" d="M2039.05,1908.417c-76.849-2.086-160.122-6.76-237.03-11.7
		c-232.873-14.958-244.539-19.301-346.002-21.486c-12.796,0-108.625-3.924-397.009,5.133
		c-113.394,3.287-313.63,11.685-429.408,12.773c-169.542,1.626-306.993-147.238-306.993-328.883v-175.111
		c0,0,80.239-52.707,147.185,22.304c0,0,70.144-77.051,181.731-20.147c111.587,56.904,66.956,197.181,0,238.634
		c0,0,165.441-19.127,202.282,124.338c0,0,137.536-200.858,385.288-66.956c0,0,60.612-79.697,166.928-3.188
		c0,0,122.68-148.906,304.199-72.854c180.445,75.595,127.281,202.08,126.655,203.568
		C1838.033,1814.576,2027.552,1770.562,2039.05,1908.417z"/>
	<polygon style="fill:#FFFFFF;" points="1048.827,468.023 1057.859,417.283 1069.282,468.289 1114.178,476.259 1072.736,487.682 
		1062.641,528.328 1049.092,487.151 1009.191,477.598 	"/>
	<polygon style="fill:#FFFFFF;" points="2225.713,1093.801 2245.105,1057.048 2241.358,1099.026 2273.884,1116.167 
		2239.251,1114.769 2221.521,1143.507 2221.222,1108.557 2192.922,1091.426 	"/>
	<polygon style="fill:#FFFFFF;" points="635.584,839.243 654.975,802.489 651.229,844.468 683.754,861.609 649.121,860.21 
		631.392,888.949 631.093,853.998 602.792,836.868 	"/>
	<polygon style="fill:#FFFFFF;" points="2240.923,720.617 2231.417,662.815 2262.948,713.166 2314.083,704.731 2273.983,732.646 
		2278.533,780.029 2248.44,741.018 2202.061,745.867 	"/>
	<g>
		<path style="fill:#FFFFFF;" d="M692.971,595.89c6.838,0,6.849-10.626,0-10.626C686.134,585.264,686.123,595.89,692.971,595.89
			L692.971,595.89z"/>
	</g>
	<g>
		<path style="fill:#FFFFFF;" d="M957.592,646.901c6.838,0,6.849-10.626,0-10.626C950.755,636.275,950.744,646.901,957.592,646.901
			L957.592,646.901z"/>
	</g>
	<g>
		<path style="fill:#FFFFFF;" d="M1426.259,375.904c6.838,0,6.849-10.626,0-10.626
			C1419.421,365.278,1419.41,375.904,1426.259,375.904L1426.259,375.904z"/>
	</g>
	<g>
		<path style="fill:#FFFFFF;" d="M1901.301,283.446c6.837,0,6.849-10.626,0-10.626
			C1894.464,272.82,1894.452,283.446,1901.301,283.446L1901.301,283.446z"/>
	</g>
	<g>
		<path style="fill:#FFFFFF;" d="M1904.489,1322.801c6.837,0,6.849-10.626,0-10.626
			C1897.652,1312.175,1897.64,1322.801,1904.489,1322.801L1904.489,1322.801z"/>
	</g>
	<g>
		<path style="fill:#FFFFFF;" d="M2357.569,1034.674c6.837,0,6.849-10.626,0-10.626
			C2350.732,1024.047,2350.72,1034.674,2357.569,1034.674L2357.569,1034.674z"/>
	</g>
	<g>
		<path style="fill:#FFFFFF;" d="M2213.745,879.641c6.838,0,6.849-10.626,0-10.626
			C2206.907,869.014,2206.896,879.641,2213.745,879.641L2213.745,879.641z"/>
	</g>
</g>
</svg>
